<svg xmlns="http://www.w3.org/2000/svg" width="494.12" height="131.55" viewBox="0 0 494.12 131.55">
    <g id="Layer_2" data-name="Layer 2" transform="translate(0.01)">
        <g id="Layer_1" data-name="Layer 1">
            <path id="Path_458" data-name="Path 458" d="M175.87,103a44.43,44.43,0,0,1-13.4-5.76.31.31,0,0,1-.1-.41l2.55-5.05a8.58,8.58,0,0,1,10.79-4.2,50.6,50.6,0,0,0,5,1.72,49.47,49.47,0,0,0,13.69,2q15.42,0,15.42-8.12,0-3.85-3.92-5.37A67.27,67.27,0,0,0,193.35,75a102.83,102.83,0,0,1-14.8-3.17,22.69,22.69,0,0,1-9.91-6.26q-4.2-4.48-4.2-12.46a19.583,19.583,0,0,1,8.74-16.73q8.74-6.26,23.61-6.26a68,68,0,0,1,15.15,1.72,43.08,43.08,0,0,1,12.13,4.46.32.32,0,0,1,.12.43l-2.79,5.52a8.43,8.43,0,0,1-10.35,4.16A42.56,42.56,0,0,0,196.66,44q-7.57,0-11.5,2.27c-2.61,1.52-3.92,3.51-3.92,6q0,4.14,4.2,5.85a66.39,66.39,0,0,0,13,3.24,101.151,101.151,0,0,1,14.45,3.16,22.79,22.79,0,0,1,9.71,6.06q4,4.28,4.06,12.12,0,10.32-8.95,16.52t-24.37,6.19A65.77,65.77,0,0,1,175.87,103Z"/>
            <path id="Path_459" data-name="Path 459" d="M358.34,31.33,333.45,98.8a8.62,8.62,0,0,1-8.07,5.62h-4.86a8.19,8.19,0,0,1-7.66-5.31L296.15,54.55a.31.31,0,0,0-.59,0L278.61,99.07a8.28,8.28,0,0,1-7.75,5.35H266a8.48,8.48,0,0,1-8-5.55L233.24,31.33a.31.31,0,0,1,.3-.43h9.59a8.8,8.8,0,0,1,8.28,5.84l17,47.59a.32.32,0,0,0,.6,0l17.87-47.9a8.5,8.5,0,0,1,8-5.53h2.61a8.5,8.5,0,0,1,8,5.59L323,84.6a.32.32,0,0,0,.6,0l17.58-48a8.68,8.68,0,0,1,8.14-5.69H358a.33.33,0,0,1,.34.42Z"/>
            <path id="Path_460" data-name="Path 460" d="M428.43,73.17H376a.34.34,0,0,0-.33.4A19.92,19.92,0,0,0,383.48,86q6.4,4.75,15.9,4.75a28.12,28.12,0,0,0,14.27-3.56,8.62,8.62,0,0,1,10.91,1.58l3.82,4.38a.33.33,0,0,1,0,.43A31.06,31.06,0,0,1,416,102.35a49.63,49.63,0,0,1-38.41-1.79,34.66,34.66,0,0,1-14.25-13.42,37.89,37.89,0,0,1-5-19.48,38.44,38.44,0,0,1,4.88-19.34A34.74,34.74,0,0,1,376.8,34.89a39.61,39.61,0,0,1,19.55-4.81,38.57,38.57,0,0,1,19.21,4.75,33.6,33.6,0,0,1,13.21,13.35,40.47,40.47,0,0,1,4.75,19.89h0A5.11,5.11,0,0,1,428.43,73.17ZM382.38,48.73a20.47,20.47,0,0,0-6.89,12.62.34.34,0,0,0,.32.39h40.95a.33.33,0,0,0,.32-.38,20.19,20.19,0,0,0-6.69-12.56,20.48,20.48,0,0,0-14-5,20.74,20.74,0,0,0-14.01,4.93Z"/>
            <path id="Path_461" data-name="Path 461" d="M450.58,19H459a.32.32,0,0,1,.32.32V95.71a8.71,8.71,0,0,1-8.71,8.71h-8.19a.32.32,0,0,1-.31-.32V27.49A8.45,8.45,0,0,1,450.58,19Z"/>
            <path id="Path_462" data-name="Path 462" d="M485.36,19h8.43a.32.32,0,0,1,.32.32V95.71a8.71,8.71,0,0,1-8.71,8.71h-8.18a.32.32,0,0,1-.32-.32V27.49A8.46,8.46,0,0,1,485.36,19Z"/>
            <path id="Path_463" data-name="Path 463" d="M65.93,131.55a65.757,65.757,0,1,0-.007,0" fill="none"/>
            <path id="Path_464" data-name="Path 464" d="M45.8,93.92a8.71,8.71,0,0,1-8.71,8.71H28.91a.32.32,0,0,1-.32-.32V65.69A8.45,8.45,0,0,1,37,57.24h8.44a.32.32,0,0,1,.32.32Z" fill="none"/>
            <path id="Path_465" data-name="Path 465" d="M74.54,79.92a8.71,8.71,0,0,1-8.71,8.71H57.65a.32.32,0,0,1-.32-.32V51.7a8.46,8.46,0,0,1,8.45-8.46h8.44a.32.32,0,0,1,.32.32Z" fill="none"/>
            <path id="Path_466" data-name="Path 466" d="M103.11,65.93a8.71,8.71,0,0,1-8.71,8.71H86.21a.31.31,0,0,1-.31-.31V37.71a8.45,8.45,0,0,1,8.45-8.45h8.44a.32.32,0,0,1,.32.32Z" fill="none"/>
            <path id="Path_467" data-name="Path 467" d="M65.62,0a65.62,65.62,0,1,0,65.61,65.617A65.622,65.622,0,0,0,65.62,0ZM45.48,93.6a8.71,8.71,0,0,1-8.71,8.71H28.59a.32.32,0,0,1-.32-.32V65.38a8.46,8.46,0,0,1,8.45-8.46h8.44a.32.32,0,0,1,.32.32Zm28.74-14a8.71,8.71,0,0,1-8.71,8.71H57.33A.32.32,0,0,1,57,88V51.38a8.46,8.46,0,0,1,8.46-8.46H73.9a.32.32,0,0,1,.32.32Zm28.57-14a8.71,8.71,0,0,1-8.71,8.71H85.9a.32.32,0,0,1-.32-.32V37.39A8.45,8.45,0,0,1,94,28.94h8.44a.32.32,0,0,1,.32.32Z" fill="#e31c79"/>
        </g>
    </g>
</svg>
